<svg width="50" height="50" viewBox="0 0 50 50" fill="none" xmlns="http://www.w3.org/2000/svg">
<g clip-path="url(#clip0_54_36)">
<rect width="50" height="50" fill="white"/>
<rect width="50" height="50" fill="#D9D9D9"/>
<path d="M24.344 36.256C23.0427 36.256 21.8053 36.224 20.632 36.16C19.48 36.096 18.5627 36.0213 17.88 35.936V13.664C18.6267 13.5787 19.5547 13.504 20.664 13.44C21.7733 13.376 23.0427 13.344 24.472 13.344C27.2027 13.344 29.304 13.8667 30.776 14.912C32.248 15.936 32.984 17.3333 32.984 19.104C32.984 20.2773 32.664 21.28 32.024 22.112C31.4053 22.9227 30.4987 23.5947 29.304 24.128C30.7547 24.64 31.8533 25.3547 32.6 26.272C33.3467 27.168 33.72 28.2773 33.72 29.6C33.72 31.6267 32.92 33.248 31.32 34.464C29.72 35.6587 27.3947 36.256 24.344 36.256ZM20.92 23.264H24.44C26.1253 23.264 27.4587 22.912 28.44 22.208C29.4427 21.504 29.944 20.5973 29.944 19.488C29.944 18.2933 29.4533 17.3867 28.472 16.768C27.4907 16.128 26.1467 15.808 24.44 15.808C23.736 15.808 23.096 15.8293 22.52 15.872C21.944 15.8933 21.4107 15.9253 20.92 15.968V23.264ZM24.568 33.728C26.4667 33.728 27.9493 33.3867 29.016 32.704C30.0827 32.0213 30.616 31.0293 30.616 29.728C30.616 28.448 30.0933 27.4453 29.048 26.72C28.0027 25.9947 26.5093 25.632 24.568 25.632H20.92V33.536C22.0507 33.664 23.2667 33.728 24.568 33.728Z" fill="black"/>
</g>
<defs>
<clipPath id="clip0_54_36">
<rect width="50" height="50" fill="white"/>
</clipPath>
</defs>
</svg>
