<svg width="837" height="165" viewBox="0 0 837 165" fill="none" xmlns="http://www.w3.org/2000/svg">
<g clip-path="url(#clip0_47_31)">
<rect width="837" height="165" fill="white"/>
<path d="M0 20C0 8.95431 8.95431 0 20 0H817C828.046 0 837 8.95431 837 20V145C837 156.046 828.046 165 817 165H20C8.95429 165 0 156.046 0 145V20Z" fill="#F6C598"/>
<rect x="-65" y="20" width="148" height="124" rx="62" fill="#D9D9D9"/>
<path d="M-55 82C-55 51.6243 -30.3757 27 4.0629e-06 27H21C51.3757 27 76 51.6243 76 82V82C76 112.376 51.3757 137 21 137H1.58794e-07C-30.3757 137 -55 112.376 -55 82V82Z" fill="#E4A8A8"/>
</g>
<defs>
<clipPath id="clip0_47_31">
<rect width="837" height="165" fill="white"/>
</clipPath>
</defs>
</svg>
